<svg width="40" height="40" viewBox="0 0 40 40" fill="none" xmlns="http://www.w3.org/2000/svg">
<g filter="url(#filter0_ii)">
<rect x="0.5" y="0.5" width="39" height="39" rx="11.5" fill="white"/>
<rect x="0.5" y="0.5" width="39" height="39" rx="11.5" fill="url(#paint0_linear)" fill-opacity="0.2"/>
<rect x="0.5" y="0.5" width="39" height="39" rx="11.5" stroke="url(#paint1_linear)"/>
</g>
<path fill-rule="evenodd" clip-rule="evenodd" d="M21.4585 11.6666C21.9187 11.6666 22.2918 12.0397 22.2918 12.5V15.8333C22.2918 16.2935 21.9187 16.6666 21.4585 16.6666C20.9983 16.6666 20.6252 16.2935 20.6252 15.8333V15H12.2918C11.8316 15 11.4585 14.6269 11.4585 14.1666C11.4585 13.7064 11.8316 13.3333 12.2918 13.3333H20.6252V12.5C20.6252 12.0397 20.9983 11.6666 21.4585 11.6666ZM23.9585 14.1666C23.9585 13.7064 24.3316 13.3333 24.7918 13.3333H27.2918C27.7521 13.3333 28.1252 13.7064 28.1252 14.1666C28.1252 14.6269 27.7521 15 27.2918 15H24.7918C24.3316 15 23.9585 14.6269 23.9585 14.1666ZM18.9585 17.5C19.4187 17.5 19.7918 17.8731 19.7918 18.3333V19.1666H28.1252C28.5854 19.1666 28.9585 19.5397 28.9585 20C28.9585 20.4602 28.5854 20.8333 28.1252 20.8333H19.7918V21.6666C19.7918 22.1269 19.4187 22.5 18.9585 22.5C18.4983 22.5 18.1252 22.1269 18.1252 21.6666V18.3333C18.1252 17.8731 18.4983 17.5 18.9585 17.5ZM11.4585 20C11.4585 19.5397 11.8316 19.1666 12.2918 19.1666H15.6252C16.0854 19.1666 16.4585 19.5397 16.4585 20C16.4585 20.4602 16.0854 20.8333 15.6252 20.8333H12.2918C11.8316 20.8333 11.4585 20.4602 11.4585 20ZM21.4585 23.3333C21.9187 23.3333 22.2918 23.7064 22.2918 24.1666V27.5C22.2918 27.9602 21.9187 28.3333 21.4585 28.3333C20.9983 28.3333 20.6252 27.9602 20.6252 27.5V26.6666H12.2918C11.8316 26.6666 11.4585 26.2935 11.4585 25.8333C11.4585 25.3731 11.8316 25 12.2918 25H20.6252V24.1666C20.6252 23.7064 20.9983 23.3333 21.4585 23.3333ZM23.9585 25.8333C23.9585 25.3731 24.3316 25 24.7918 25H27.2918C27.7521 25 28.1252 25.3731 28.1252 25.8333C28.1252 26.2935 27.7521 26.6666 27.2918 26.6666H24.7918C24.3316 26.6666 23.9585 26.2935 23.9585 25.8333Z" fill="url(#paint2_radial)"/>
<defs>
<filter id="filter0_ii" x="-4" y="-3" width="49" height="48" filterUnits="userSpaceOnUse" color-interpolation-filters="sRGB">
<feFlood flood-opacity="0" result="BackgroundImageFix"/>
<feBlend mode="normal" in="SourceGraphic" in2="BackgroundImageFix" result="shape"/>
<feColorMatrix in="SourceAlpha" type="matrix" values="0 0 0 0 0 0 0 0 0 0 0 0 0 0 0 0 0 0 127 0" result="hardAlpha"/>
<feOffset dx="5" dy="5"/>
<feGaussianBlur stdDeviation="4.5"/>
<feComposite in2="hardAlpha" operator="arithmetic" k2="-1" k3="1"/>
<feColorMatrix type="matrix" values="0 0 0 0 1 0 0 0 0 1 0 0 0 0 1 0 0 0 0.25 0"/>
<feBlend mode="normal" in2="shape" result="effect1_innerShadow"/>
<feColorMatrix in="SourceAlpha" type="matrix" values="0 0 0 0 0 0 0 0 0 0 0 0 0 0 0 0 0 0 127 0" result="hardAlpha"/>
<feOffset dx="-4" dy="-3"/>
<feGaussianBlur stdDeviation="2"/>
<feComposite in2="hardAlpha" operator="arithmetic" k2="-1" k3="1"/>
<feColorMatrix type="matrix" values="0 0 0 0 0 0 0 0 0 0 0 0 0 0 0 0 0 0 0.25 0"/>
<feBlend mode="normal" in2="effect1_innerShadow" result="effect2_innerShadow"/>
</filter>
<linearGradient id="paint0_linear" x1="0.466473" y1="39.5192" x2="48.0917" y2="22.012" gradientUnits="userSpaceOnUse">
<stop stop-color="#E368E1"/>
<stop offset="1" stop-color="#6B71E1"/>
</linearGradient>
<linearGradient id="paint1_linear" x1="43.6364" y1="-11.8182" x2="8.18182" y2="47.2727" gradientUnits="userSpaceOnUse">
<stop stop-color="white" stop-opacity="0.6"/>
<stop offset="1" stop-color="white" stop-opacity="0.3"/>
</linearGradient>
<radialGradient id="paint2_radial" cx="0" cy="0" r="1" gradientUnits="userSpaceOnUse" gradientTransform="translate(23.941 15.7459) rotate(135.261) scale(14.9026 14.9137)">
<stop stop-color="#4B87E7"/>
<stop offset="0.408778" stop-color="#9756DB"/>
<stop offset="0.714779" stop-color="#B83DB2"/>
<stop offset="0.979167" stop-color="#FE84FF"/>
</radialGradient>
</defs>
</svg>
