<svg width="13" height="22" viewBox="0 0 13 22" fill="none" xmlns="http://www.w3.org/2000/svg">
<path d="M8.61445 1.31819V8.03128C8.61445 8.31525 8.84465 8.54545 9.12862 8.54545H11.8202C12.1857 8.54545 12.5298 8.71832 12.748 9.01164C13.0289 9.38931 13.0528 9.89956 12.8085 10.3019L6.09259 21.3623C5.81114 21.8258 5.09819 21.6263 5.09819 21.0841V13.9261C5.09819 13.6657 4.88706 13.4545 4.62663 13.4545H2.26938C1.68262 13.4545 1.14655 13.122 0.885874 12.5963C0.646274 12.1132 0.67611 11.54 0.964582 11.0843L7.37451 0.958704C7.73459 0.389888 8.61445 0.644975 8.61445 1.31819Z" fill="white" fill-opacity="0.8"/>
<path d="M8.61445 1.31819V8.03128C8.61445 8.31525 8.84465 8.54545 9.12862 8.54545H11.8202C12.1857 8.54545 12.5298 8.71832 12.748 9.01164C13.0289 9.38931 13.0528 9.89956 12.8085 10.3019L6.09259 21.3623C5.81114 21.8258 5.09819 21.6263 5.09819 21.0841V13.9261C5.09819 13.6657 4.88706 13.4545 4.62663 13.4545H2.26938C1.68262 13.4545 1.14655 13.122 0.885874 12.5963C0.646274 12.1132 0.67611 11.54 0.964582 11.0843L7.37451 0.958704C7.73459 0.389888 8.61445 0.644975 8.61445 1.31819Z" fill="url(#paint0_linear)"/>
<defs>
<linearGradient id="paint0_linear" x1="1.9316" y1="19.2883" x2="15.9255" y2="13.8371" gradientUnits="userSpaceOnUse">
<stop stop-color="#4B87E7"/>
<stop offset="0.333333" stop-color="#9756DB"/>
<stop offset="0.645833" stop-color="#B83DB2"/>
<stop offset="0.979167" stop-color="#FE84FF"/>
</linearGradient>
</defs>
</svg>
