<svg width="17" height="16" viewBox="0 0 17 16" fill="none" xmlns="http://www.w3.org/2000/svg">
<path d="M15.1667 8C15.1667 10.4608 14.5519 12.0616 13.5559 13.0568C12.5596 14.0521 10.9568 14.6667 8.49303 14.6667C6.02928 14.6667 4.42642 14.0521 3.4302 13.0568C2.52711 12.1545 1.93742 10.7542 1.83526 8.66645C1.81726 8.2987 1.52092 8 1.15273 8C0.784538 8 0.484232 8.30038 0.500642 8.66821C0.718712 13.5561 3.38284 16 8.49303 16C13.831 16 16.5 13.3333 16.5 8C16.5 2.66667 13.831 0 8.49303 0C4.48355 0 1.97988 1.50449 0.982013 4.51348C0.844843 4.9271 1.16991 5.33333 1.60568 5.33333C1.91373 5.33333 2.17956 5.12471 2.28141 4.83398C2.55823 4.04386 2.94989 3.42311 3.4302 2.94322C4.42642 1.94787 6.02928 1.33333 8.49303 1.33333C10.9568 1.33333 12.5596 1.94787 13.5559 2.94322C14.5519 3.93835 15.1667 5.53915 15.1667 8Z" fill="white" fill-opacity="0.8"/>
<path d="M0.5 0.666667C0.5 0.298477 0.798477 0 1.16667 0C1.53486 0 1.83333 0.298477 1.83333 0.666667V4H5.16667C5.53486 4 5.83333 4.29848 5.83333 4.66667C5.83333 5.03486 5.53486 5.33333 5.16667 5.33333H1.16667C0.798477 5.33333 0.5 5.03486 0.5 4.66667V0.666667Z" fill="white"/>
</svg>
