<svg width="25" height="24" viewBox="0 0 25 24" fill="none" xmlns="http://www.w3.org/2000/svg">
<path fill-rule="evenodd" clip-rule="evenodd" d="M12.5312 0C12.0304 0 11.6566 0.272794 11.4445 0.465027C11.2112 0.676487 11.0057 0.944105 10.8282 1.21165C10.4699 1.7518 10.1184 2.45751 9.79988 3.17601C9.15798 4.62394 8.57839 6.28879 8.27546 7.19764C8.27102 7.21098 8.25793 7.22146 8.24208 7.22199C7.29298 7.25408 5.55356 7.3392 4.0375 7.56154C3.28851 7.67138 2.53421 7.82283 1.94527 8.04213C1.65528 8.15011 1.33903 8.29823 1.07818 8.51312C0.814172 8.73061 0.5 9.11177 0.5 9.66144C0.5 10.0416 0.643828 10.3781 0.77402 10.6183C0.913569 10.8757 1.098 11.1308 1.29526 11.3717C1.69066 11.8545 2.21348 12.3713 2.75402 12.8629C3.84026 13.8507 5.09819 14.8262 5.81389 15.3655C5.82518 15.374 5.83043 15.3882 5.82576 15.4035C5.55091 16.3059 5.07355 17.9569 4.76989 19.4883C4.61906 20.2489 4.50259 21.0211 4.4851 21.6732C4.4764 21.9976 4.49068 22.3334 4.55554 22.6413C4.61595 22.928 4.7487 23.3306 5.08844 23.6308C5.46974 23.9678 5.92866 24.0125 6.24642 23.9928C6.57135 23.9727 6.89678 23.8787 7.18679 23.7692C7.77244 23.5482 8.43353 23.1783 9.06741 22.779C10.348 21.9723 11.7039 20.9252 12.475 20.3095C12.489 20.2983 12.5095 20.298 12.5241 20.3097C13.2951 20.9259 14.6522 21.9737 15.9423 22.781C16.5813 23.1808 17.2492 23.5507 17.8449 23.7714C18.1407 23.881 18.4694 23.9734 18.7973 23.993C19.1192 24.0122 19.5654 23.9671 19.9462 23.6544C20.303 23.3615 20.4512 22.9592 20.52 22.6608C20.5925 22.3465 20.6093 22.0053 20.6012 21.6784C20.5851 21.0215 20.4626 20.2464 20.3039 19.486C19.9841 17.9544 19.4782 16.3028 19.1856 15.3967C19.1804 15.3806 19.1859 15.3656 19.1976 15.3568C19.9169 14.8145 21.172 13.8404 22.2546 12.855C22.7933 12.3647 23.3141 11.8493 23.7079 11.3678C23.9044 11.1275 24.0881 10.873 24.2271 10.6162C24.3569 10.3764 24.5 10.0407 24.5 9.66144C24.5 9.11236 24.1865 8.73138 23.9227 8.51382C23.6621 8.29893 23.3462 8.1508 23.0566 8.04283C22.4685 7.82356 21.7152 7.6721 20.9672 7.56223C19.4531 7.33982 17.7151 7.25446 16.7638 7.2222C16.7478 7.22165 16.7349 7.21121 16.7306 7.19776C16.4345 6.2862 15.8694 4.62279 15.2405 3.17685C14.9285 2.45944 14.5832 1.75441 14.2294 1.21448C14.0542 0.947072 13.8505 0.678927 13.618 0.466782C13.4061 0.273382 13.0327 0 12.5312 0ZM10.1728 7.83006C10.4704 6.93722 11.026 5.34515 11.6283 3.98657C11.9318 3.30182 12.2297 2.71688 12.4948 2.31721C12.497 2.314 12.4991 2.31082 12.5012 2.30766C12.5103 2.29396 12.5193 2.28067 12.5281 2.26779C12.5374 2.28161 12.5469 2.29589 12.5566 2.31064C12.8172 2.70837 13.1093 3.2912 13.4065 3.97458C13.9962 5.33023 14.5376 6.92016 14.8284 7.81559C15.0933 8.63131 15.8408 9.19204 16.6961 9.22105C17.6299 9.25272 19.277 9.33541 20.6766 9.541C21.3597 9.64134 21.9285 9.76342 22.315 9.90118C22.271 9.96182 22.2194 10.0287 22.1597 10.1016C21.8563 10.4726 21.4179 10.9122 20.9084 11.376C19.8946 12.2988 18.6975 13.2291 17.9935 13.7598C17.2996 14.283 17.016 15.1866 17.2824 16.0114C17.569 16.8987 18.0485 18.4693 18.3461 19.8947C18.496 20.6129 18.5901 21.2501 18.6018 21.7275C18.6036 21.7982 18.6034 21.8617 18.6017 21.9182C18.582 21.9114 18.5614 21.904 18.5398 21.896C18.136 21.7464 17.6043 21.4617 17.0032 21.0856C15.8132 20.3409 14.5283 19.3512 13.7728 18.7474C13.029 18.1529 11.9719 18.1518 11.2271 18.7465C10.4706 19.3506 9.18486 20.3412 8.00135 21.0868C7.40454 21.4628 6.87902 21.7473 6.48325 21.8971C6.48243 21.8454 6.48272 21.7887 6.48438 21.7268C6.49739 21.2418 6.58875 20.5982 6.73169 19.8773C7.01559 18.4456 7.46961 16.8706 7.73898 15.9862C7.98787 15.1691 7.7012 14.2834 7.01749 13.7682C6.31711 13.2404 5.11719 12.3086 4.09961 11.3832C3.58824 10.9182 3.14765 10.477 2.84261 10.1045C2.78196 10.0304 2.72963 9.96263 2.68497 9.90118C3.07243 9.76308 3.64289 9.6408 4.3277 9.54037C5.72935 9.33481 7.37787 9.25235 8.30965 9.22085C9.15928 9.19213 9.90345 8.63827 10.1728 7.83006ZM12.8154 1.92445C12.8153 1.92481 12.8116 1.9279 12.8041 1.93265C12.8117 1.92646 12.8154 1.92409 12.8154 1.92445ZM12.2547 1.93083C12.2474 1.92613 12.2437 1.92308 12.2437 1.92273C12.2436 1.92238 12.2473 1.92473 12.2547 1.93083ZM18.5588 22.2538C18.5584 22.2549 18.5582 22.2555 18.5583 22.2556C18.5584 22.2557 18.5595 22.2533 18.5613 22.248C18.5601 22.2505 18.5593 22.2525 18.5588 22.2538ZM18.9262 21.9969L18.9303 21.9969C18.9303 21.9969 18.929 21.997 18.9262 21.9969ZM6.11381 21.997L6.1174 21.9969C6.11494 21.997 6.11377 21.997 6.11381 21.997Z" fill="url(#paint0_linear)"/>
<path d="M11.6283 3.98657C11.026 5.34515 10.4704 6.93722 10.1728 7.83006C9.90345 8.63827 9.15928 9.19213 8.30965 9.22085C7.37787 9.25235 5.72935 9.33481 4.3277 9.54037C3.64289 9.6408 3.07243 9.76308 2.68497 9.90118C2.72963 9.96263 2.78196 10.0304 2.84261 10.1045C3.14765 10.477 3.58824 10.9182 4.09961 11.3832C5.11719 12.3086 6.31711 13.2404 7.01749 13.7682C7.7012 14.2834 7.98787 15.1691 7.73898 15.9862C7.46961 16.8706 7.01559 18.4456 6.73169 19.8773C6.58875 20.5982 6.49739 21.2418 6.48438 21.7268C6.48272 21.7887 6.48243 21.8454 6.48325 21.8971C6.87902 21.7473 7.40454 21.4628 8.00135 21.0868C9.18486 20.3412 10.4706 19.3506 11.2271 18.7465C11.9719 18.1518 13.029 18.1529 13.7728 18.7474C14.5283 19.3512 15.8132 20.3409 17.0032 21.0856C17.6043 21.4617 18.136 21.7464 18.5398 21.896C18.5614 21.904 18.582 21.9114 18.6017 21.9182C18.6034 21.8617 18.6036 21.7982 18.6018 21.7275C18.5901 21.2501 18.496 20.6129 18.3461 19.8947C18.0485 18.4693 17.569 16.8987 17.2824 16.0114C17.016 15.1866 17.2996 14.283 17.9935 13.7598C18.6975 13.2291 19.8946 12.2988 20.9084 11.376C21.4179 10.9122 21.8563 10.4726 22.1597 10.1016C22.2194 10.0287 22.271 9.96182 22.315 9.90118C21.9285 9.76342 21.3597 9.64134 20.6766 9.541C19.277 9.33541 17.6299 9.25272 16.6961 9.22105C15.8408 9.19204 15.0933 8.63131 14.8284 7.81559C14.5376 6.92016 13.9962 5.33023 13.4065 3.97458C13.1093 3.2912 12.8172 2.70837 12.5566 2.31064C12.5469 2.29589 12.5374 2.28161 12.5281 2.26779L12.5012 2.30766L12.4948 2.31721C12.2297 2.71688 11.9318 3.30182 11.6283 3.98657Z" fill="url(#paint1_linear)"/>
<defs>
<linearGradient id="paint0_linear" x1="15.4158" y1="23.6245" x2="1.16457" y2="12.9349" gradientUnits="userSpaceOnUse">
<stop stop-color="#FFD977"/>
<stop offset="1" stop-color="#EF9123"/>
</linearGradient>
<linearGradient id="paint1_linear" x1="15.4158" y1="23.6245" x2="1.16457" y2="12.9349" gradientUnits="userSpaceOnUse">
<stop stop-color="#FFD977"/>
<stop offset="1" stop-color="#EF9123"/>
</linearGradient>
</defs>
</svg>
