<svg width="18" height="18" viewBox="0 0 18 18" fill="none" xmlns="http://www.w3.org/2000/svg">
<path fill-rule="evenodd" clip-rule="evenodd" d="M10.4585 0.666626C10.9187 0.666626 11.2918 1.03972 11.2918 1.49996V4.83329C11.2918 5.29353 10.9187 5.66663 10.4585 5.66663C9.99826 5.66663 9.62516 5.29353 9.62516 4.83329V3.99996H1.29183C0.831592 3.99996 0.458496 3.62686 0.458496 3.16663C0.458496 2.70639 0.831592 2.33329 1.29183 2.33329H9.62516V1.49996C9.62516 1.03972 9.99826 0.666626 10.4585 0.666626ZM12.9585 3.16663C12.9585 2.70639 13.3316 2.33329 13.7918 2.33329H16.2918C16.7521 2.33329 17.1252 2.70639 17.1252 3.16663C17.1252 3.62686 16.7521 3.99996 16.2918 3.99996H13.7918C13.3316 3.99996 12.9585 3.62686 12.9585 3.16663ZM7.9585 6.49996C8.41873 6.49996 8.79183 6.87306 8.79183 7.33329V8.16663H17.1252C17.5854 8.16663 17.9585 8.53972 17.9585 8.99996C17.9585 9.4602 17.5854 9.83329 17.1252 9.83329H8.79183V10.6666C8.79183 11.1269 8.41873 11.5 7.9585 11.5C7.49826 11.5 7.12516 11.1269 7.12516 10.6666V7.33329C7.12516 6.87306 7.49826 6.49996 7.9585 6.49996ZM0.458496 8.99996C0.458496 8.53972 0.831592 8.16663 1.29183 8.16663H4.62516C5.0854 8.16663 5.4585 8.53972 5.4585 8.99996C5.4585 9.4602 5.0854 9.83329 4.62516 9.83329H1.29183C0.831592 9.83329 0.458496 9.4602 0.458496 8.99996ZM10.4585 12.3333C10.9187 12.3333 11.2918 12.7064 11.2918 13.1666V16.5C11.2918 16.9602 10.9187 17.3333 10.4585 17.3333C9.99826 17.3333 9.62516 16.9602 9.62516 16.5V15.6666H1.29183C0.831592 15.6666 0.458496 15.2935 0.458496 14.8333C0.458496 14.3731 0.831592 14 1.29183 14H9.62516V13.1666C9.62516 12.7064 9.99826 12.3333 10.4585 12.3333ZM12.9585 14.8333C12.9585 14.3731 13.3316 14 13.7918 14H16.2918C16.7521 14 17.1252 14.3731 17.1252 14.8333C17.1252 15.2935 16.7521 15.6666 16.2918 15.6666H13.7918C13.3316 15.6666 12.9585 15.2935 12.9585 14.8333Z" fill="url(#paint0_radial)"/>
<defs>
<radialGradient id="paint0_radial" cx="0" cy="0" r="1" gradientUnits="userSpaceOnUse" gradientTransform="translate(12.941 4.74588) rotate(135.261) scale(14.9026 14.9137)">
<stop stop-color="#4B87E7"/>
<stop offset="0.408778" stop-color="#9756DB"/>
<stop offset="0.714779" stop-color="#B83DB2"/>
<stop offset="0.979167" stop-color="#FE84FF"/>
</radialGradient>
</defs>
</svg>
