<svg width="32" height="32" viewBox="0 0 32 32" fill="none" xmlns="http://www.w3.org/2000/svg">
<circle cx="16" cy="16" r="10" fill="url(#paint0_linear)"/>
<rect x="28" y="15" width="4" height="2" rx="1" fill="url(#paint1_linear)"/>
<rect y="15" width="4" height="2" rx="1" fill="url(#paint2_linear)"/>
<rect x="17" y="28" width="4" height="2" rx="1" transform="rotate(90 17 28)" fill="url(#paint3_linear)"/>
<rect x="17" width="4" height="2" rx="1" transform="rotate(90 17 0)" fill="url(#paint4_linear)"/>
<rect x="25.1924" y="23.7783" width="4" height="2" rx="1" transform="rotate(45 25.1924 23.7783)" fill="url(#paint5_linear)"/>
<rect x="5.39355" y="3.979" width="4" height="2" rx="1" transform="rotate(45 5.39355 3.979)" fill="url(#paint6_linear)"/>
<rect x="8.22168" y="25.1924" width="4" height="2" rx="1" transform="rotate(135 8.22168 25.1924)" fill="url(#paint7_linear)"/>
<rect x="28.0205" y="5.39355" width="4" height="2" rx="1" transform="rotate(135 28.0205 5.39355)" fill="url(#paint8_linear)"/>
<defs>
<linearGradient id="paint0_linear" x1="18.4298" y1="25.6897" x2="6.55266" y2="16.7821" gradientUnits="userSpaceOnUse">
<stop stop-color="#FFD977"/>
<stop offset="1" stop-color="#EF9123"/>
</linearGradient>
<linearGradient id="paint1_linear" x1="30.486" y1="16.969" x2="29.3439" y2="15.2559" gradientUnits="userSpaceOnUse">
<stop stop-color="#FFD977"/>
<stop offset="1" stop-color="#EF9123"/>
</linearGradient>
<linearGradient id="paint2_linear" x1="2.48596" y1="16.969" x2="1.34391" y2="15.2559" gradientUnits="userSpaceOnUse">
<stop stop-color="#FFD977"/>
<stop offset="1" stop-color="#EF9123"/>
</linearGradient>
<linearGradient id="paint3_linear" x1="19.486" y1="29.969" x2="18.3439" y2="28.2559" gradientUnits="userSpaceOnUse">
<stop stop-color="#FFD977"/>
<stop offset="1" stop-color="#EF9123"/>
</linearGradient>
<linearGradient id="paint4_linear" x1="19.486" y1="1.96897" x2="18.3439" y2="0.255934" gradientUnits="userSpaceOnUse">
<stop stop-color="#FFD977"/>
<stop offset="1" stop-color="#EF9123"/>
</linearGradient>
<linearGradient id="paint5_linear" x1="27.6783" y1="25.7473" x2="26.5363" y2="24.0343" gradientUnits="userSpaceOnUse">
<stop stop-color="#FFD977"/>
<stop offset="1" stop-color="#EF9123"/>
</linearGradient>
<linearGradient id="paint6_linear" x1="7.87952" y1="5.94797" x2="6.73746" y2="4.23494" gradientUnits="userSpaceOnUse">
<stop stop-color="#FFD977"/>
<stop offset="1" stop-color="#EF9123"/>
</linearGradient>
<linearGradient id="paint7_linear" x1="10.7076" y1="27.1614" x2="9.56559" y2="25.4483" gradientUnits="userSpaceOnUse">
<stop stop-color="#FFD977"/>
<stop offset="1" stop-color="#EF9123"/>
</linearGradient>
<linearGradient id="paint8_linear" x1="30.5065" y1="7.36252" x2="29.3644" y2="5.64949" gradientUnits="userSpaceOnUse">
<stop stop-color="#FFD977"/>
<stop offset="1" stop-color="#EF9123"/>
</linearGradient>
</defs>
</svg>
