<svg width="19" height="18" viewBox="0 0 19 18" fill="none" xmlns="http://www.w3.org/2000/svg">
<path d="M4.51317 0.688535C3.59511 -0.229512 2.10665 -0.229512 1.1886 0.688535C0.270541 1.60658 0.270541 3.09503 1.1886 4.01308L6.17554 8.99997L1.18854 13.9869C0.270486 14.905 0.270486 16.3934 1.18854 17.3115C2.1066 18.2295 3.59506 18.2295 4.51311 17.3115L9.50011 12.3245L14.4869 17.3112C15.4049 18.2293 16.8934 18.2293 17.8115 17.3112C18.7295 16.3932 18.7295 14.9047 17.8115 13.9867L12.8247 8.99997L17.8114 4.0133C18.7295 3.09525 18.7295 1.6068 17.8114 0.688754C16.8933 -0.229293 15.4049 -0.229292 14.4868 0.688755L9.50011 5.67543L4.51317 0.688535Z" fill="url(#paint0_linear)"/>
<defs>
<linearGradient id="paint0_linear" x1="11.6868" y1="17.7207" x2="0.99739" y2="9.70387" gradientUnits="userSpaceOnUse">
<stop stop-color="#FF7777"/>
<stop offset="1" stop-color="#EF234C"/>
</linearGradient>
</defs>
</svg>
