<svg width="17" height="16" viewBox="0 0 17 16" fill="none" xmlns="http://www.w3.org/2000/svg">
<path d="M9.50581 1.73366L8.66667 0.959065V2.10106V9.23079C8.66667 9.24906 8.65962 9.27328 8.63226 9.29853C8.60424 9.3244 8.55874 9.34618 8.5 9.34618C8.44126 9.34618 8.39577 9.3244 8.36774 9.29853C8.34038 9.27328 8.33333 9.24906 8.33333 9.23079V2.10106V0.959065L7.49419 1.73366L5.29893 3.76006C5.23011 3.82358 5.10322 3.82358 5.0344 3.76006L4.69526 4.12746L5.0344 3.76006C5.0061 3.73394 5 3.70936 5 3.69232C5 3.67527 5.0061 3.65069 5.0344 3.62457L4.69526 3.25717L5.0344 3.62457L8.36774 0.547644C8.43655 0.484119 8.56345 0.484119 8.63226 0.547644L11.9656 3.62457C11.9939 3.65069 12 3.67527 12 3.69232C12 3.70936 11.9939 3.73394 11.9656 3.76006C11.8968 3.82358 11.7699 3.82358 11.7011 3.76006L9.50581 1.73366Z" fill="white" stroke="white"/>
<path d="M3.83333 5.7206C3.83333 5.30993 3.41247 5.00366 2.9991 5.1555C1.03797 5.87582 0.5 7.37319 0.5 10.2805C0.5 14.9905 1.912 16 8.5 16C15.088 16 16.5 14.9905 16.5 10.2805C16.5 7.37319 15.962 5.87582 14.0009 5.1555C13.5875 5.00366 13.1667 5.30993 13.1667 5.7206C13.1667 5.99903 13.3673 6.23791 13.6427 6.35149C13.8515 6.43764 14.0184 6.53052 14.1541 6.62749C14.7793 7.07449 15.1667 7.92741 15.1667 10.2805C15.1667 12.6335 14.7793 13.4864 14.1541 13.9334C13.8051 14.1829 13.2492 14.4054 12.3031 14.5557C11.3574 14.706 10.124 14.7692 8.5 14.7692C6.87603 14.7692 5.64257 14.706 4.69687 14.5557C3.75081 14.4054 3.19494 14.1829 2.84594 13.9334C2.22071 13.4864 1.83333 12.6335 1.83333 10.2805C1.83333 7.92741 2.22071 7.07449 2.84594 6.62749C2.98158 6.53052 3.14846 6.43764 3.35735 6.35149C3.63275 6.23791 3.83333 5.99903 3.83333 5.7206Z" fill="white" fill-opacity="0.8"/>
</svg>
