<svg width="18" height="18" viewBox="0 0 18 18" fill="none" xmlns="http://www.w3.org/2000/svg">
<path d="M15.1573 2.84985H2.35156V15.6568H15.1573V2.84985Z" fill="#4B87E7"/>
<path d="M17.4999 6.90936L6.41016 0.505859L0.00729614 11.5967L11.0971 18.0002L17.4999 6.90936Z" fill="#4B87E7"/>
<path d="M17.5 11.5962L11.0972 0.505371L0.00739408 6.90886L6.41027 17.9997L17.5 11.5962Z" fill="#4B87E7"/>
<path d="M8.13967 12.5933L6.94287 11.32L12.0789 6.68257C12.1248 6.64182 12.1935 6.64437 12.2368 6.69021L13.2783 7.79799C13.3216 7.84383 13.319 7.91513 13.2706 7.95842L8.13967 12.5933Z" fill="white"/>
<path d="M8.15746 12.5779L9.47394 11.3911L6.33934 8.42175C6.29605 8.38101 6.23239 8.38101 6.18911 8.41921L5.04833 9.42768C4.99995 9.47097 4.9974 9.54737 5.04578 9.59321L8.15746 12.5779Z" fill="white"/>
</svg>
