<svg width="375" height="286" viewBox="0 0 375 286" fill="none" xmlns="http://www.w3.org/2000/svg">
<path d="M1050 317.5C993.5 309.972 953.769 300.911 891 266C812.581 222.385 767.5 194.499 646 194.499C524.5 194.499 459.745 136.727 373.5 103.999C303.97 77.6137 289 40.0001 156.5 20C24 -5.72752e-07 -24.7412 0 -24.7412 0C-24.7412 86.8219 -24.7412 659.568 -24.7412 659.568L1479.12 659.568L1479.12 446C1479.12 446 1310.5 402 1253 394C1195.5 386 1178.09 403.713 1142.5 385.5C1101.21 364.368 1106.5 325.028 1050 317.5Z" fill="url(#paint0_linear)"/>
<defs>
<linearGradient id="paint0_linear" x1="777.5" y1="164.5" x2="701.834" y2="444.634" gradientUnits="userSpaceOnUse">
<stop stop-color="#FF2424"/>
<stop offset="0.487613" stop-color="#C1347A"/>
<stop offset="1" stop-color="#5A3C76"/>
</linearGradient>
</defs>
</svg>
