<svg width="375" height="486" viewBox="0 0 375 486" fill="none" xmlns="http://www.w3.org/2000/svg">
<path d="M140 317.5C83.5 309.972 43.7693 300.911 -19 266C-97.4186 222.385 -142.5 194.499 -264 194.499C-385.5 194.499 -450.255 136.727 -536.5 103.999C-606.03 77.6137 -621 40.0001 -753.5 20C-886 -5.72752e-07 -934.741 0 -934.741 0C-934.741 86.8219 -934.741 659.568 -934.741 659.568L569.122 659.568L569.122 446C569.122 446 400.5 402 343 394C285.5 386 268.086 403.713 232.5 385.5C191.21 364.368 196.5 325.028 140 317.5Z" fill="url(#paint0_linear)"/>
<defs>
<linearGradient id="paint0_linear" x1="-132.5" y1="164.5" x2="-208.166" y2="444.634" gradientUnits="userSpaceOnUse">
<stop stop-color="#FF2424"/>
<stop offset="0.487613" stop-color="#C1347A"/>
<stop offset="1" stop-color="#5A3C76"/>
</linearGradient>
</defs>
</svg>
